<svg fill="#000000" xmlns="http://www.w3.org/2000/svg"  viewBox="0 0 50 50" width="50px" height="50px"><path d="M 11 8 C 8.238281 8 6 10.238281 6 13 C 6 15.761719 8.238281 18 11 18 C 13.761719 18 16 15.761719 16 13 C 16 10.238281 13.761719 8 11 8 Z M 30.5 13 C 30.082031 13 29.671875 13.105469 29.304688 13.308594 L 29.296875 13.296875 L 21.53125 16.914063 L 10.941406 20.140625 C 10.9375 20.144531 10.933594 20.144531 10.929688 20.144531 L 10.890625 20.160156 C 9.179688 20.65625 8 22.21875 8 24 C 8 24.90625 8.308594 25.785156 8.875 26.496094 L 8.875 26.5 L 19.15625 39.203125 L 19.167969 39.203125 C 20.117188 40.339844 21.519531 40.996094 23 41 C 24.34375 41 25.628906 40.457031 26.566406 39.496094 L 34.402344 32 L 43.40625 26.828125 C 44.367188 26.457031 45 25.53125 45 24.5 C 45 23.121094 43.878906 22 42.5 22 C 42.066406 22 41.644531 22.113281 41.265625 22.328125 L 41.261719 22.316406 L 32 26.484375 L 25.359375 31.5 L 18.675781 23.191406 L 22.84375 21.765625 L 31.363281 17.84375 C 32.347656 17.480469 33 16.546875 33 15.5 C 33 14.121094 31.878906 13 30.5 13 Z M 23 41 L 3 41 C 2.640625 40.996094 2.304688 41.183594 2.121094 41.496094 C 1.941406 41.808594 1.941406 42.191406 2.121094 42.503906 C 2.304688 42.816406 2.640625 43.003906 3 43 L 47 43 C 47.359375 43.003906 47.695313 42.816406 47.878906 42.503906 C 48.058594 42.191406 48.058594 41.808594 47.878906 41.496094 C 47.695313 41.183594 47.359375 40.996094 47 41 Z"/></svg>