<svg fill="#000000" xmlns="http://www.w3.org/2000/svg"  viewBox="0 0 50 50" width="50px" height="50px"><path d="M 13 2 A 5 5 0 0 0 13 12 A 5 5 0 0 0 13 2 z M 27.166016 10.787109 C 26.74935 10.760133 26.319688 10.840156 25.929688 11.035156 L 20 14 L 7 14.052734 C 5.424 14.124734 4 15.759344 4 17.527344 C 4 18.112344 4.1067969 18.618719 4.3417969 19.261719 L 7.4707031 25.804688 C 7.8207031 26.546688 8.6038437 27 9.4648438 27 L 18.363281 27 C 19.296281 27 20 26 20 25 C 20 24 19.266 23 18.25 23 L 10.271484 23 C 10.064484 23 9.8767813 22.848016 9.8007812 22.666016 L 7.2460938 17.640625 C 7.1420937 17.395625 7.2673437 17.116578 7.5273438 17.017578 C 7.7853438 16.918578 8.0835 17.039156 8.1875 17.285156 L 10.615234 22 L 13 22 L 14 18 L 21 18 L 27.910156 14.929688 C 29.102156 14.399687 29.578578 12.940781 28.892578 11.800781 C 28.518203 11.178281 27.860459 10.83207 27.166016 10.787109 z M 32.085938 10.982422 C 31.83259 10.980152 31.573688 10.992519 31.308594 11.021484 A 1.0001 1.0001 0 1 0 31.525391 13.009766 C 33.074633 12.840489 34.104088 13.329127 35.121094 14.279297 C 36.1381 15.229467 37.047727 16.67726 37.96875 18.21875 C 38.889773 19.76024 39.824437 21.391333 41.064453 22.701172 C 42.30447 24.011011 43.940381 25 46 25 A 1.0001 1.0001 0 1 0 46 23 C 44.547119 23 43.52164 22.388833 42.515625 21.326172 C 41.50961 20.263511 40.614649 18.74837 39.685547 17.193359 C 38.756445 15.638349 37.794103 14.04019 36.486328 12.818359 C 35.342025 11.749258 33.859367 10.998311 32.085938 10.982422 z M 4 20.796875 L 2.1425781 29.175781 C 1.8915781 30.306781 1.943875 31.479031 2.296875 32.582031 C 2.955875 34.642031 4 37.884422 4 38.607422 L 3 45.960938 L 3 46 C 3 47.105 3.895 48 5 48 C 6.105 48 7 47.105 7 46 L 8 38.160156 L 6.6425781 32.867188 C 6.5325781 32.621187 6.6426719 32.332656 6.8886719 32.222656 C 7.1346719 32.112656 7.4232031 32.224703 7.5332031 32.470703 L 11 38 L 11 42 L 11 45.960938 L 11 46 C 11 47.105 11.895 48 13 48 C 14.105 48 15 47.105 15 46 L 15 42 L 15 38.361328 C 15 37.462328 14.817844 36.572094 14.464844 35.746094 L 11.15625 30.078125 C 11.16925 30.054125 11.8125 28 11.8125 28 L 9.4648438 28 C 8.2028437 28 7.0559687 27.281359 6.5429688 26.193359 L 4 20.796875 z M 22.75 24 A 1.0001 1.0001 0 1 0 22.75 26 C 25.98074 26 27.892747 26.743749 29.320312 27.828125 C 30.747879 28.912501 31.718939 30.417408 32.818359 32.056641 C 33.91778 33.695873 35.155163 35.464062 37.183594 36.802734 C 39.212025 38.141406 41.985215 39 46 39 A 1.0001 1.0001 0 1 0 46 37 C 42.264785 37 39.950163 36.233594 38.285156 35.134766 C 36.62015 34.035938 35.558845 32.554127 34.478516 30.943359 C 33.398186 29.332592 32.310668 27.587499 30.529297 26.234375 C 28.747926 24.881251 26.30026 24 22.75 24 z"/></svg>