<svg fill="#000000" xmlns="http://www.w3.org/2000/svg"  viewBox="0 0 50 50" width="50px" height="50px"><path d="M 16.5 9 C 14.015625 9 12 11.015625 12 13.5 C 12 15.984375 14.015625 18 16.5 18 C 18.984375 18 21 15.984375 21 13.5 C 21 11.015625 18.984375 9 16.5 9 Z M 27.1875 9 C 24.789063 9 22.800781 10.914063 23 13.3125 C 23 14.011719 23.199219 14.585938 23.5 15.1875 C 23.800781 15.789063 29.1875 24.09375 29.1875 24.09375 L 23.5 29.8125 C 22.800781 30.511719 22.710938 31.605469 23.3125 32.40625 C 23.710938 32.804688 24.1875 33.09375 24.6875 33.09375 C 25.1875 33.09375 25.699219 32.894531 26 32.59375 L 33 25.59375 C 33.601563 24.992188 33.804688 24.105469 33.40625 23.40625 L 31 18 L 42 18 L 41.1875 28 C 41.085938 28.601563 41.113281 29.304688 41.3125 29.90625 L 44.5 41.1875 C 44.800781 42.085938 45.59375 42.898438 46.59375 43 C 48.292969 43.199219 49.59375 41.507813 49.09375 39.90625 L 46.1875 29.5 C 46.085938 29.101563 46.085938 28.804688 46.1875 28.40625 C 46.085938 28.40625 50 15.800781 50 15 L 50 14 C 50 11.199219 47.800781 9 45 9 Z M 10.0625 12.65625 L 0 17.5 L 0 23.8125 L 11.90625 18.09375 C 10.734375 16.917969 10 15.289063 10 13.5 C 10 13.21875 10.027344 12.929688 10.0625 12.65625 Z M 22.03125 21.8125 C 21.777344 21.8125 21.539063 21.898438 21.34375 22.09375 L 19.5625 23.875 L 18.40625 22.6875 L 17 24.09375 L 18.15625 25.28125 L 16.03125 27.40625 C 15.84375 27.59375 15.71875 27.828125 15.71875 28.09375 C 15.71875 28.359375 15.84375 28.625 16.03125 28.8125 L 18.40625 31.21875 C 18.601563 31.414063 18.867188 31.5 19.125 31.5 C 19.382813 31.5 19.648438 31.414063 19.84375 31.21875 L 25.125 25.90625 C 25.3125 25.71875 25.4375 25.453125 25.4375 25.1875 C 25.4375 24.921875 25.3125 24.6875 25.125 24.5 L 22.75 22.09375 C 22.554688 21.898438 22.285156 21.8125 22.03125 21.8125 Z M 4 24.09375 L 2 25.0625 L 2 41 L 0 41 L 0 43 L 6 43 L 6 41 L 4 41 Z M 30.9375 30.6875 C 30.683594 30.6875 30.414063 30.804688 30.21875 31 L 24.90625 36.3125 C 24.515625 36.703125 24.515625 37.328125 24.90625 37.71875 L 27.3125 40.09375 C 27.5 40.28125 27.765625 40.40625 28.03125 40.40625 C 28.296875 40.40625 28.53125 40.28125 28.71875 40.09375 L 30.6875 38.125 L 31.65625 39.1875 L 33.125 37.8125 L 32.09375 36.71875 L 34.03125 34.8125 C 34.21875 34.625 34.3125 34.359375 34.3125 34.09375 C 34.3125 33.828125 34.21875 33.59375 34.03125 33.40625 L 31.625 31 C 31.429688 30.804688 31.191406 30.6875 30.9375 30.6875 Z"/></svg>