<svg fill="#000000" xmlns="http://www.w3.org/2000/svg"  viewBox="0 0 50 50" width="50px" height="50px"><path d="M 22.5 3 C 20.015625 3 18 5.015625 18 7.5 C 18 9.984375 20.015625 12 22.5 12 C 24.984375 12 27 9.984375 27 7.5 C 27 5.015625 24.984375 3 22.5 3 Z M 18.03125 12.71875 C 16.246094 12.839844 14.621094 14.015625 14 15.8125 L 10.875 24.3125 C 9.996094 26.714844 11.054688 29.394531 13.3125 30.59375 L 15.25 31.625 L 21.5 35.53125 L 20.375 44.15625 C 20.179688 45.65625 21.328125 47 22.84375 47 C 24.078125 47 25.152344 46.09375 25.34375 44.875 L 27 34.28125 C 27.175781 33.175781 26.714844 32.070313 25.8125 31.40625 L 20.0625 27.1875 L 22.03125 20.875 L 25.71875 23.46875 C 26.324219 23.894531 27.089844 23.957031 27.75 23.625 L 30.15625 22.40625 L 35.53125 45.46875 C 35.941406 47.226563 37.738281 48.320313 39.5 47.90625 L 45.46875 46.53125 C 47.226563 46.121094 48.320313 44.324219 47.90625 42.5625 L 41.84375 16.53125 C 41.535156 15.210938 40.453125 14.28125 39.1875 14.0625 C 38.976563 14.027344 38.75 13.996094 38.53125 14 C 38.3125 14.003906 38.09375 14.042969 37.875 14.09375 L 31.90625 15.46875 C 31.039063 15.671875 30.351563 16.25 29.84375 16.96875 C 29.582031 17.339844 29.457031 17.703125 29.40625 18.03125 L 27.15625 19.125 L 21.5625 14.09375 C 21.082031 13.613281 20.527344 13.203125 19.84375 12.96875 C 19.246094 12.761719 18.625 12.679688 18.03125 12.71875 Z M 38.59375 16 C 39.195313 15.980469 39.730469 16.382813 39.875 17 L 40.75 20.84375 L 39.09375 21.21875 L 39.53125 23.1875 L 41.21875 22.8125 L 42.15625 26.84375 L 40.53125 27.21875 L 41 29.15625 L 42.625 28.78125 L 43.59375 32.9375 L 41.875 33.34375 L 42.34375 35.28125 L 44.0625 34.90625 L 45 38.9375 L 43.34375 39.3125 L 43.78125 41.25 L 45.46875 40.875 L 45.96875 43.03125 C 46.132813 43.738281 45.707031 44.398438 45 44.5625 L 42.96875 45.03125 L 36.28125 16.53125 L 38.34375 16.03125 C 38.433594 16.011719 38.507813 16.003906 38.59375 16 Z M 34.3125 16.96875 L 41 45.5 L 39.03125 45.96875 C 38.324219 46.132813 37.664063 45.707031 37.5 45 L 37 42.9375 L 38.5 42.59375 L 38.0625 40.625 L 36.5625 40.96875 L 35.59375 36.96875 L 37.0625 36.625 L 36.625 34.6875 L 35.15625 35.03125 L 34.1875 30.84375 L 35.71875 30.5 L 35.28125 28.53125 L 33.71875 28.875 L 32.75 24.84375 L 34.25 24.5 L 33.8125 22.5625 L 32.3125 22.90625 L 32.0625 21.875 L 32.09375 21.875 L 32 21.46875 L 33.09375 20.9375 C 34.125 20.417969 34.542969 19.160156 34.03125 18.125 C 33.839844 17.738281 33.535156 17.453125 33.1875 17.25 Z M 10.71875 31.15625 L 9.78125 37.5625 L 4.1875 41.21875 C 3.046875 41.964844 2.679688 43.46875 3.34375 44.65625 C 4.066406 45.945313 5.710938 46.402344 6.96875 45.625 L 14.03125 41.25 C 14.480469 40.972656 14.785156 40.515625 14.90625 40 L 16.21875 34.59375 L 14.25 33.375 L 12.34375 32.375 C 11.730469 32.046875 11.195313 31.625 10.71875 31.15625 Z"/></svg>