<svg fill="#000000" xmlns="http://www.w3.org/2000/svg"  viewBox="0 0 50 50" width="50px" height="50px"><path d="M 24.09375 0 C 21.335938 0 19.09375 2.242188 19.09375 5 C 19.09375 7.757813 21.335938 10 24.09375 10 C 26.851563 10 29.09375 7.757813 29.09375 5 C 29.09375 2.242188 26.851563 0 24.09375 0 Z M 22 11.5 C 20.039063 11.5 18.5 13.039063 18.5 15 L 18.5 16 L 18.53125 16.0625 C 18.535156 16.089844 18.523438 16.128906 18.53125 16.15625 L 21.40625 25.53125 C 21.722656 26.589844 22.71875 27.34375 23.8125 27.34375 C 23.972656 27.34375 24.125 27.3125 24.28125 27.28125 L 32.28125 25.8125 C 31.53125 24.882813 31.058594 23.730469 30.96875 22.46875 L 28.15625 23 L 25.1875 23.53125 C 25.125 23.542969 25.058594 23.5625 25 23.5625 C 24.554688 23.5625 24.148438 23.257813 24.03125 22.8125 L 22.84375 18.3125 C 22.8125 18.199219 22.804688 18.109375 22.8125 18 C 22.816406 17.957031 22.832031 17.886719 22.84375 17.84375 C 22.851563 17.800781 22.859375 17.761719 22.875 17.71875 C 22.921875 17.601563 23.007813 17.503906 23.09375 17.40625 C 23.21875 17.265625 23.367188 17.144531 23.5625 17.09375 C 24.097656 16.953125 24.640625 17.28125 24.78125 17.8125 L 25.75 21.40625 L 28.5 20.90625 L 28.5 17 C 28.5 13.914063 26.085938 11.5 23 11.5 Z M 36.9375 18.0625 C 34.730469 18.0625 32.9375 19.855469 32.9375 22.0625 C 32.9375 24.269531 34.730469 26.0625 36.9375 26.0625 C 39.144531 26.0625 40.9375 24.269531 40.9375 22.0625 C 40.9375 19.855469 39.144531 18.0625 36.9375 18.0625 Z M 18.5 22.875 L 18.5 25.8125 C 18.5 28.042969 19.167969 30.121094 20.40625 31.875 L 25.5 39.0625 L 25.5 47.46875 C 25.5 48.847656 26.621094 49.96875 28 49.96875 C 29.378906 49.96875 30.5 48.847656 30.5 47.46875 L 30.5 37.90625 C 30.5 37.851563 30.488281 37.800781 30.46875 37.75 L 27.40625 28.75 L 24.6875 29.25 C 24.40625 29.304688 24.101563 29.34375 23.8125 29.34375 C 21.84375 29.34375 20.066406 28.007813 19.5 26.125 Z M 18.65625 32.90625 L 17.09375 47.21875 C 17.03125 47.882813 17.234375 48.542969 17.65625 49.0625 C 18.082031 49.585938 18.695313 49.90625 19.40625 49.96875 L 19.59375 49.96875 C 20.847656 49.96875 21.972656 48.953125 22.09375 47.71875 L 23.0625 39.09375 L 18.75 33.03125 C 18.714844 32.984375 18.6875 32.953125 18.65625 32.90625 Z"/></svg>