<svg fill="#000000" xmlns="http://www.w3.org/2000/svg"  viewBox="0 0 50 50" width="50px" height="50px"><path d="M 18 2 C 13.039063 2 9 6.039063 9 11 C 9 15.960938 13.039063 20 18 20 C 22.960938 20 27 15.960938 27 11 C 27 6.039063 22.960938 2 18 2 Z M 18 9 C 19.105469 9 20 9.894531 20 11 C 20 12.105469 19.105469 13 18 13 C 16.894531 13 16 12.105469 16 11 C 16 9.894531 16.894531 9 18 9 Z M 15 21.574219 L 15 33 C 15 34.101563 14.898438 35 16 35 L 43 35 L 43 45.5 C 43 46.898438 44.101563 48 45.5 48 C 46.898438 48 48 46.898438 48 45.5 L 48 33 C 48 30.800781 46.199219 29 44 29 L 39 29 C 34.101563 29 28.199219 27 24 27 L 20 27 L 20 21.808594 C 19.351563 21.929688 18.683594 22 18 22 C 16.960938 22 15.953125 21.84375 15 21.574219 Z M 7.5 24 C 4.421875 24 2 26.421875 2 29.5 C 2 32.578125 4.421875 35 7.5 35 C 10.578125 35 13 32.578125 13 29.5 C 13 26.421875 10.578125 24 7.5 24 Z M 3 37 C 2.449219 37 2 37.445313 2 38 L 2 39 C 2 39.554688 2.449219 40 3 40 L 39 40 C 39.554688 40 40 39.554688 40 39 L 40 38 C 40 37.445313 39.554688 37 39 37 Z"/></svg>