<svg fill="#000000" xmlns="http://www.w3.org/2000/svg"  viewBox="0 0 50 50" width="50px" height="50px"><path d="M 26.09375 4.59375 C 23.496094 4.59375 21.40625 6.714844 21.40625 9.3125 C 21.40625 11.910156 23.496094 14 26.09375 14 C 28.691406 14 30.8125 11.910156 30.8125 9.3125 C 30.8125 6.714844 28.691406 4.59375 26.09375 4.59375 Z M 37.5625 10.28125 C 37.304688 10.28125 37.03125 10.375 36.84375 10.5625 L 34.8125 12.5625 L 33.8125 11.5 L 32.375 12.875 L 33.40625 13.96875 L 31.53125 15.84375 C 31.140625 16.234375 31.140625 16.890625 31.53125 17.28125 L 34 19.71875 C 34.1875 19.90625 34.453125 20.03125 34.71875 20.03125 C 34.984375 20.03125 35.21875 19.90625 35.40625 19.71875 L 40.71875 14.4375 C 41.109375 14.046875 41.109375 13.421875 40.71875 13.03125 L 38.25 10.5625 C 38.0625 10.375 37.820313 10.28125 37.5625 10.28125 Z M 25.375 15.71875 C 24.289063 15.71875 23.207031 16.148438 22.40625 17 L 12.40625 27 L 3.96875 27 C 1.46875 27 -0.40625 29.3125 0.09375 31.8125 L 2.84375 45 C 3.042969 46.199219 4.050781 47 5.25 47 C 6.851563 47 7.957031 45.601563 7.65625 44 L 5.09375 32 L 9.78125 32 C 9.300781 32.53125 9 33.234375 9 34 C 9 35.644531 10.355469 37 12 37 L 21 37 C 21.265625 37.007813 21.527344 36.90625 21.71875 36.71875 L 31.9375 26.46875 L 33.59375 27.3125 C 33.894531 27.511719 34.285156 27.59375 34.6875 27.59375 C 35.1875 27.59375 35.699219 27.394531 36 27.09375 L 42 21 C 42.699219 20.199219 42.699219 19.011719 42 18.3125 C 41.300781 17.613281 40.105469 17.613281 39.40625 18.3125 L 34.59375 23.09375 L 28.40625 17 C 27.554688 16.148438 26.460938 15.71875 25.375 15.71875 Z M 46.59375 19.21875 C 46.339844 19.21875 46.070313 19.304688 45.875 19.5 L 40.5625 24.8125 C 40.375 25 40.28125 25.234375 40.28125 25.5 C 40.28125 25.765625 40.375 26.03125 40.5625 26.21875 L 43.03125 28.6875 C 43.226563 28.882813 43.492188 28.96875 43.75 28.96875 C 44.007813 28.96875 44.242188 28.882813 44.4375 28.6875 L 46.28125 26.84375 L 47.1875 27.78125 L 48.625 26.40625 L 47.6875 25.4375 L 49.75 23.375 C 49.9375 23.1875 50.0625 22.921875 50.0625 22.65625 C 50.0625 22.390625 49.9375 22.15625 49.75 21.96875 L 47.28125 19.5 C 47.085938 19.304688 46.847656 19.21875 46.59375 19.21875 Z M 27.96875 24.46875 L 30.0625 25.5 L 30.0625 25.53125 L 20.5625 35 L 12 35 C 11.445313 35 11 34.554688 11 34 C 11 33.445313 11.445313 33 12 33 L 19 33 C 19.265625 33.007813 19.527344 32.90625 19.71875 32.71875 Z"/></svg>