<svg fill="#000000" xmlns="http://www.w3.org/2000/svg"  viewBox="0 0 50 50" width="50px" height="50px"><path d="M 22 2 C 19.238281 2 17 4.238281 17 7 C 17 9.761719 19.238281 12 22 12 C 24.761719 12 27 9.761719 27 7 C 27 4.238281 24.761719 2 22 2 Z M 21 15 C 18.789063 15 17 16.789063 17 19 L 17 32 C 17 34.210938 18.78125 36 21 36 C 21.632813 36 22.21875 35.875 22.75 35.703125 L 22.75 35.707031 L 22.90625 35.644531 C 23.113281 35.574219 23.308594 35.496094 23.496094 35.410156 L 29.542969 33 L 32.148438 40.320313 C 32.71875 41.917969 34.75 42.578125 36.203125 41.332031 C 36.980469 40.667969 37.179688 39.542969 36.839844 38.578125 L 33.84375 30.175781 C 33.386719 28.894531 32.125 28.078125 30.769531 28.191406 L 25 28.671875 L 25 19 L 38 19 C 39.105469 19 40 18.105469 40 17 C 40 15.894531 39.105469 15 38 15 Z M 17.320313 36.730469 L 17 38.761719 L 9.460938 42.21875 C 8.207031 42.796875 7.660156 44.28125 8.234375 45.535156 C 8.808594 46.789063 10.292969 47.339844 11.546875 46.765625 L 20.574219 42.621094 C 21.464844 42.210938 22.101563 41.390625 22.277344 40.421875 L 22.746094 37.78125 C 22.238281 37.902344 21.636719 38 21 38 C 19.613281 38 18.335938 37.523438 17.320313 36.730469 Z M 36 42 C 33.582031 42 31.5625 43.71875 31.097656 46 L 31 46 C 30.640625 45.996094 30.304688 46.183594 30.121094 46.496094 C 29.941406 46.808594 29.941406 47.191406 30.121094 47.503906 C 30.304688 47.816406 30.640625 48.003906 31 48 L 41 48 C 41.359375 48.003906 41.695313 47.816406 41.878906 47.503906 C 42.058594 47.191406 42.058594 46.808594 41.878906 46.496094 C 41.695313 46.183594 41.359375 45.996094 41 46 L 40.902344 46 C 40.4375 43.71875 38.417969 42 36 42 Z"/></svg>