<?xml version="1.0"?><svg fill="#000000" xmlns="http://www.w3.org/2000/svg"  viewBox="0 0 50 50" width="50px" height="50px">    <path d="M 16.556641 3 C 16.300891 3 16.045109 3.0974687 15.849609 3.2929688 L 13.292969 5.8496094 C 12.901969 6.2406094 12.901969 6.8726719 13.292969 7.2636719 L 18.736328 12.707031 C 18.931328 12.902031 19.187359 13 19.443359 13 C 19.699359 13 19.955391 12.902031 20.150391 12.707031 L 22.707031 10.150391 C 23.098031 9.7593906 23.098031 9.1273281 22.707031 8.7363281 L 20.691406 6.7226562 L 21.957031 5.4570312 L 20.542969 4.0429688 L 19.277344 5.3085938 L 17.263672 3.2929688 C 17.068172 3.0974687 16.812391 3 16.556641 3 z M 30.5 3 C 28.019 3 26 5.019 26 7.5 C 26 9.981 28.019 12 30.5 12 C 32.981 12 35 9.981 35 7.5 C 35 5.019 32.981 3 30.5 3 z M 12 9 C 11.48825 9 10.976437 9.1954375 10.585938 9.5859375 C 9.8049375 10.366938 9.8049375 11.633063 10.585938 12.414062 L 16.585938 18.414062 C 16.960938 18.789062 17.47 19 18 19 L 25 19 L 22.017578 34.816406 C 21.961578 35.108406 22.039469 35.409672 22.230469 35.638672 C 22.421469 35.867672 22.702 36 23 36 L 37 36 C 37.305 36 37.59225 35.861047 37.78125 35.623047 C 37.97125 35.385047 38.043609 35.073391 37.974609 34.775391 L 37.603516 32.808594 C 37.082516 32.929594 36.548 33 36 33 C 34.13 33 32.372781 32.271219 31.050781 30.949219 C 29.728781 29.627219 29 27.87 29 26 C 29 24.13 29.728781 22.372781 31.050781 21.050781 L 32.257812 19.841797 L 35.748047 16.351562 C 34.565047 15.485562 33.136953 15 31.626953 15 L 18.828125 15 L 13.414062 9.5859375 C 13.023563 9.1954375 12.51175 9 12 9 z M 7.5566406 12 C 7.3008906 12 7.0451094 12.097469 6.8496094 12.292969 L 4.2929688 14.849609 C 3.9019687 15.240609 3.9019687 15.872672 4.2929688 16.263672 L 6.3085938 18.277344 L 5.0429688 19.542969 L 6.4570312 20.957031 L 7.7226562 19.691406 L 9.7363281 21.707031 C 9.9313281 21.902031 10.187359 22 10.443359 22 C 10.699359 22 10.955391 21.902031 11.150391 21.707031 L 13.707031 19.150391 C 14.098031 18.759391 14.098031 18.127328 13.707031 17.736328 L 8.2636719 12.292969 C 8.0681719 12.097469 7.8123906 12 7.5566406 12 z M 40.978516 16 C 39.705516 16.005 38.435844 16.493844 37.464844 17.464844 L 32.464844 22.464844 C 31.743844 23.185844 31.288609 24.071 31.099609 25 C 31.032609 25.33 31 25.665 31 26 C 31 26.335 31.032609 26.67 31.099609 27 C 31.288609 27.929 31.743844 28.815156 32.464844 29.535156 C 33.441844 30.512156 34.72 31 36 31 C 37.28 31 38.558156 30.511156 39.535156 29.535156 L 44.535156 24.535156 C 45.495156 23.575156 45.984 22.3215 46 21.0625 C 46.016 19.7615 45.527156 18.457844 44.535156 17.464844 C 43.553156 16.482844 42.265516 15.994 40.978516 16 z M 40.869141 18.013672 C 41.779141 18.047672 42.580859 18.578609 42.880859 19.474609 C 43.300859 20.732609 42.578672 22.212297 41.263672 22.779297 C 40.915672 22.929297 40.561703 23 40.220703 23 C 39.273703 23 38.429141 22.452344 38.119141 21.527344 C 37.927141 20.955344 37.976984 20.339203 38.208984 19.783203 C 38.237984 19.713203 38.388906 19.339906 38.878906 18.878906 C 39.428906 18.361906 40.020141 18.013672 40.869141 18.013672 z M 25 38 L 25 45 C 25 46.105 25.895 47 27 47 C 28.105 47 29 46.105 29 45 L 29 38 L 25 38 z M 31 38 L 31 45 C 31 46.105 31.895 47 33 47 C 34.105 47 35 46.105 35 45 L 35 38 L 31 38 z"/></svg>