<svg fill="#000000" xmlns="http://www.w3.org/2000/svg"  viewBox="0 0 50 50" width="50px" height="50px"><path d="M 29.5 2 A 4.5 4.5 0 0 0 25 6.5 A 4.5 4.5 0 0 0 29.5 11 A 4.5 4.5 0 0 0 34 6.5 A 4.5 4.5 0 0 0 29.5 2 z M 25.210938 13 C 24.331937 13 23.475344 13.290219 22.777344 13.824219 L 15.978516 18.283203 A 2 2 0 0 0 15.835938 18.376953 L 15.826172 18.382812 L 15.824219 18.384766 A 2 2 0 0 0 15.144531 19.255859 L 15.134766 19.269531 L 12.3125 25.929688 A 2 2 0 0 0 12 27 A 2 2 0 0 0 12.664062 28.484375 L 4.0957031 46.572266 A 1.0003546 1.0003546 0 1 0 5.9042969 47.427734 L 14.693359 28.875 A 2 2 0 0 0 15.933594 27.498047 L 18.478516 21.792969 L 23.042969 19.181641 C 22.384969 22.236641 21.154297 27.929688 21.154297 27.929688 L 21.158203 27.949219 C 21.066085 28.286076 21 28.633937 21 29 C 21 29.798103 21.239755 30.537887 21.642578 31.162109 L 21.644531 31.171875 L 21.654297 31.181641 C 21.887444 31.538479 22.181854 31.845757 22.513672 32.111328 L 27.115234 37.076172 L 29.001953 45.542969 A 2.5 2.5 0 0 0 29.216797 46.513672 L 29.228516 46.5625 L 29.238281 46.558594 A 2.5 2.5 0 0 0 31.5 48 A 2.5 2.5 0 0 0 34 45.5 A 2.5 2.5 0 0 0 33.726562 44.363281 L 31.728516 35.351562 L 28 29.005859 L 30.855469 17.503906 C 30.855469 17.503906 30.853531 17.498082 30.853516 17.498047 A 3.5 3.5 0 0 0 31 16.5 A 3.5 3.5 0 0 0 27.5 13 A 3.5 3.5 0 0 0 27.478516 13 C 27.477269 12.999994 27.475855 13 27.474609 13 L 25.210938 13 z M 32.974609 16.830078 C 32.963609 16.983078 32.9595 17.137109 32.9375 17.287109 L 31.740234 22.166016 L 33.607422 24.238281 L 39 25.78125 L 39 47 A 1.0001 1.0001 0 1 0 41 47 L 41 25.722656 C 41.595634 25.376387 42 24.738946 42 24 C 42 23.126 41.435297 22.389188 40.654297 22.117188 L 40.65625 22.111328 L 35.667969 20.646484 L 32.974609 16.830078 z M 20.443359 32.876953 L 19.505859 37.580078 L 14.740234 43.724609 C 14.283234 44.177609 14 44.805 14 45.5 C 14 46.881 15.119 48 16.5 48 C 17.418 48 18.212484 47.500672 18.646484 46.763672 L 18.654297 46.769531 L 23.625 40.292969 L 24.519531 36.941406 L 20.443359 32.876953 z"/></svg>