<?xml version="1.0"?><svg fill="#000000" xmlns="http://www.w3.org/2000/svg"  viewBox="0 0 50 50" width="50px" height="50px">    <path d="M49,18c0,2.209-1.791,4-4,4s-4-1.791-4-4s1.791-4,4-4S49,15.791,49,18z M46.511,31H39v-8.693 c0-2.659-2.546-4.578-5.102-3.845l-12.796,3.666c-1.879,0.593-3.141,2.314-3.141,4.284v0.107L2.743,31.091 c-0.64,0.192-1.166,0.622-1.482,1.21c-0.316,0.589-0.385,1.265-0.192,1.902c0.384,1.279,1.789,2.067,3.112,1.677L34,27v6 c0,1.657,1.343,3,3,3l9.374,0c1.302,0,2.486-0.94,2.614-2.235C49.135,32.267,47.967,31,46.511,31z"/></svg>