<svg fill="#000000" xmlns="http://www.w3.org/2000/svg"  viewBox="0 0 50 50" width="50px" height="50px"><path d="M 5 10 C 2.238281 10 0 12.238281 0 15 C 0 17.761719 2.238281 20 5 20 C 7.761719 20 10 17.761719 10 15 C 10 12.238281 7.761719 10 5 10 Z M 14.21875 14.40625 C 12.835938 14.40625 11.523438 15.242188 11 16.59375 L 10.3125 18.90625 C 10.011719 19.707031 10.011719 20.605469 10.3125 21.40625 L 12.59375 27.6875 L 8.9375 32.96875 C 8.335938 33.769531 8.445313 34.992188 9.34375 35.59375 C 9.644531 35.894531 10.039063 35.96875 10.4375 35.96875 C 11.039063 35.96875 11.539063 35.679688 11.9375 35.28125 L 16.5 29.3125 C 16.796875 28.941406 16.941406 28.503906 16.90625 28.0625 C 16.871094 27.996094 16.832031 27.921875 16.8125 27.84375 L 15.5 22.75 C 15.363281 22.214844 15.683594 21.667969 16.21875 21.53125 C 16.753906 21.390625 17.300781 21.714844 17.4375 22.25 L 18.5 26.375 L 28.0625 28.9375 L 46.5625 35.875 C 47.761719 36.273438 49.25 35.449219 49.75 34.25 C 50.25 33.050781 50.121094 31.1875 48.46875 30.5 L 15.59375 14.6875 C 15.144531 14.488281 14.679688 14.40625 14.21875 14.40625 Z M 0 36 L 0 38 L 50 38 L 50 36 Z"/></svg>