<svg fill="#000000" xmlns="http://www.w3.org/2000/svg"  viewBox="0 0 50 50" width="50px" height="50px"><path d="M 28.988281 2 C 26.234375 2 23.988281 4.242188 23.988281 7 C 23.988281 9.757813 26.234375 12 28.988281 12 C 31.746094 12 33.988281 9.757813 33.988281 7 C 33.988281 4.242188 31.746094 2 28.988281 2 Z M 44 2 L 44 48 L 46 48 L 46 2 Z M 23.746094 12.003906 C 22.085938 12.09375 20.496094 13.195313 19 15.300781 L 13.113281 24.410156 C 12.695313 25.078125 12.027344 26.460938 12 27.328125 C 11.945313 29.367188 13.28125 31.195313 15.417969 32 L 25.03125 35.855469 L 25.027344 44.605469 C 24.914063 45.460938 25.175781 46.328125 25.746094 46.976563 C 26.316406 47.628906 27.140625 48 28.007813 48 C 29.496094 48 30.746094 46.933594 30.984375 45.386719 L 31.03125 34.5 C 31.03125 32.613281 30.007813 31.910156 29.1875 31.347656 C 29.066406 31.265625 28.945313 31.183594 28.765625 31.058594 L 23.316406 27.933594 L 27.953125 20.890625 L 34.636719 21.953125 C 35.183594 22.050781 35.753906 22.015625 36.285156 21.847656 L 42.566406 19.875 C 43.839844 19.234375 44.363281 17.675781 43.734375 16.398438 C 43.125 15.164063 41.925781 14.726563 40.375 15.160156 L 35.457031 16.25 C 34.269531 15.730469 26.078125 12.480469 25.421875 12.253906 C 24.855469 12.058594 24.296875 11.976563 23.746094 12.003906 Z M 12.0625 32.199219 L 10.390625 38.15625 L 4.394531 42.3125 C 3.042969 43.203125 2.601563 45.003906 3.390625 46.414063 C 3.808594 47.15625 4.492188 47.6875 5.316406 47.902344 C 5.574219 47.964844 5.835938 48 6.09375 48 C 6.664063 48 7.226563 47.839844 7.734375 47.527344 L 14.828125 42.78125 C 15.363281 42.449219 15.941406 41.835938 16.375 41.101563 L 18.8125 35.515625 L 14.714844 33.871094 C 13.679688 33.480469 12.789063 32.902344 12.0625 32.199219 Z"/></svg>