<svg fill="#000000" xmlns="http://www.w3.org/2000/svg"  viewBox="0 0 50 50" width="50px" height="50px"><path d="M 12 8 C 9.789063 8 8 9.789063 8 12 C 8 14.210938 9.789063 16 12 16 C 14.210938 16 16 14.210938 16 12 C 16 9.789063 14.210938 8 12 8 Z M 7.78125 17 C 6.582031 17 5.59375 17.710938 5.09375 18.8125 L 0.28125 30.59375 C -0.519531 32.492188 0.382813 34.699219 2.28125 35.5 L 2.90625 35.8125 C 3.605469 36.011719 4.398438 36 5 36 C 5.601563 36 14.59375 35.59375 14.59375 35.59375 L 21 40 L 12 40 L 12 36 L 0 36 L 0 38 L 10 38 L 10 42 L 40.09375 42 L 44.28125 30.96875 C 43.59375 30.902344 42.957031 30.722656 42.34375 30.46875 L 38.71875 40 L 24.34375 40 C 24.441406 39.902344 24.535156 39.8125 24.625 39.6875 C 25.324219 38.6875 25.03125 37.261719 24.03125 36.5625 L 16.59375 31.40625 C 16.195313 31.105469 15.59375 31 15.09375 31 L 10 31 L 13.5 22.40625 L 24.5625 25.25 C 24.761719 25.25 24.863281 25.34375 25.0625 25.34375 C 25.960938 25.34375 26.769531 24.769531 26.96875 23.96875 C 27.070313 22.867188 26.46875 21.769531 25.46875 21.46875 L 9.5 17.09375 C 9.101563 16.992188 7.980469 17 7.78125 17 Z M 45 19 C 42.242188 19 40 21.242188 40 24 C 40 26.757813 42.242188 29 45 29 C 47.757813 29 50 26.757813 50 24 C 50 21.242188 47.757813 19 45 19 Z M 29 23 L 29 25 L 38.09375 25 C 38.046875 24.671875 38 24.339844 38 24 C 38 23.660156 38.046875 23.328125 38.09375 23 Z"/></svg>