<svg fill="#000000" xmlns="http://www.w3.org/2000/svg"  viewBox="0 0 50 50" width="50px" height="50px"><path d="M 25 1 C 22.519 1 20.5 3.019 20.5 5.5 C 20.5 7.981 22.519 10 25 10 C 27.481 10 29.5 7.981 29.5 5.5 C 29.5 3.019 27.481 1 25 1 z M 21.412109 12 C 19.804109 12 18.280375 12.699875 17.234375 13.921875 L 8.9023438 23.646484 C 8.5670402 24.037834 8.4152711 24.521615 8.4316406 25 L 7.0078125 25 A 1.0001 1.0001 0 0 0 6.0078125 25.982422 C 6.0061511 26.07297 6 26.185869 6 26.326172 C 6 39.27723 14.37825 50 25 50 C 35.62175 50 44 39.27723 44 26.326172 C 44 26.185869 43.993788 26.07297 43.992188 25.982422 A 1.0001 1.0001 0 0 0 42.992188 25 L 41.568359 25 C 41.585864 24.52222 41.434997 24.03785 41.101562 23.648438 L 32.761719 13.917969 C 31.716719 12.698969 30.193891 12 28.587891 12 L 21.412109 12 z M 30.660156 19.253906 L 38.267578 26.404297 C 38.606889 26.723815 39.044968 26.901828 39.507812 26.921875 A 1.0001 1.0001 0 0 0 39.908203 27 L 41.945312 27 C 41.657131 38.764829 34.083137 48 25 48 C 15.916863 48 8.3428573 38.764829 8.0546875 27 L 10.273438 27 A 1.0001 1.0001 0 0 0 10.804688 26.855469 C 11.158409 26.787234 11.494576 26.629663 11.763672 26.376953 L 19.333984 19.259766 L 19.960938 43.970703 C 19.988938 45.107703 20.904922 46 22.044922 46 C 23.118922 46 24.031094 45.161797 24.121094 44.091797 L 25.082031 32.800781 L 25.835938 39.134766 C 25.961938 40.197766 26.864547 41 27.935547 41 C 29.084547 41 30.012828 40.100172 30.048828 38.951172 L 30.660156 19.253906 z"/></svg>