<?xml version="1.0" encoding="utf-8"?>
<!-- Generator: Adobe Illustrator 26.2.1, SVG Export Plug-In . SVG Version: 6.00 Build 0)  -->
<svg version="1.1" id="Calque_1" xmlns="http://www.w3.org/2000/svg" xmlns:xlink="http://www.w3.org/1999/xlink" x="0px" y="0px"
	 viewBox="0 0 870 1280" style="enable-background:new 0 0 870 1280;" xml:space="preserve">
<style type="text/css">
	.st0{fill:#BEF163;}
</style>
<g transform="translate(0.000000,1280.000000) scale(0.100000,-0.100000)">
	<path class="st0" d="M4298,8486c-26-8-69-26-95-41c-157-91-233-211-233-371c0-101,70-319,131-410c16-23,26-44,23-47s-19,2-36,10
		c-52,26-148,13-258-36c-132-58-182-92-306-205c-172-158-312-337-411-527c-68-129-238-390-354-544c-79-104-215-295-287-401
		c-22-34-64-106-91-162c-37-73-60-106-83-121c-59-36-99-84-221-264c-14-21-27-42-29-46c-2-5-73-12-158-16l-155-7l-17,48
		c-9,27-41,78-69,114c-52,64-52,65-60,155c-31,360-154,619-334,705l-63,30H917c-258,0-279-1-332-22c-179-68-309-405-322-835l-6-173
		l-31-5c-17-3-73-9-124-14c-89-8-112-14-100-27c3-3,50-9,104-15c127-12,166-18,160-27c-9-16,36-265,69-373c61-206,140-354,249-468
		c107-111,169-130,401-124c88,2,167,3,175,3c8-1,46-1,85-1c226,2,350,229,368,673c3,75,7,90,30,117c14,17,40,60,58,96
		c36,74,23,71,212,58c94-6,97-7,97-30c0-66,81-140,184-168c118-32,171-1,203,118l18,69l395-1c217-1,434-4,481-7l87-7l20-36
		c65-119,190-499,176-536c-3-7-18-18-34-26c-41-20-179-157-186-185c-20-80,42-110,206-101c60,4,128,11,152,16s75,15,114,21
		c125,20,167,63,139,143c-8,23-15,58-15,77c0,49-31,172-100,403c-33,109-60,204-60,212c0,13,85,15,625,15c374,0,625-4,625-9
		c0-32-50-207-106-372c-55-161-68-210-74-289c-9-116,0-141,62-164c68-26,213-49,338-53c96-3,121-1,150,14c40,20,50,56,28,97
		c-14,26-121,112-176,140c-17,9-32,21-32,26c0,32,44,223,73,320c34,112,82,239,102,271c9,14,62,17,463,22l452,6v-40
		c0-100,47-144,155-144c59,0,81,5,136,32c69,34,88,57,98,120l6,38l76,3c73,3,77,2,83-20c3-13,27-54,52-93l47-70l8-120
		c21-349,97-538,242-609c48-24,110-32,207-27c8,1,87-1,175-3c238-5,297,14,411,137c140,150,245,394,289,667c9,58,18,114,20,126
		c4,19,16,22,127,33c131,13,173,19,166,26c-3,3-261,35-282,35c-2,0-4,65-4,145c-1,165-14,277-47,420c-64,273-155,427-279,474
		c-53,20-76,21-332,21h-276l-63-30c-74-35-156-119-203-208c-63-119-118-327-129-490c-6-92-6-92-58-161c-46-61-61-88-79-143
		c-5-15-18-18-88-18h-83l-55,117c-58,123-128,228-160,238c-10,3-37,38-61,78c-60,102-226,336-424,597c-87,116-280,396-319,465
		c-16,28-43,75-59,105c-40,72-190,269-293,384c-188,211-381,366-512,410c-43,15-66,28-65,37c1,8,18,77,37,154c64,250,51,365-51,475
		c-76,82-177,128-298,135C4375,8498,4329,8495,4298,8486z M3669,6613c21-38,51-79,66-93c29-27,90-138,81-148c-10-9-121-2-201,13
		c-42,8-101,15-132,15h-55l22,28c12,15,55,78,96,140c41,61,77,112,79,112S3647,6650,3669,6613z M5257,6458c87-86,101-104,87-111
		c-28-16-145-10-193,9l-44,17l7,70c8,88,15,117,29,117C5148,6560,5200,6514,5257,6458z M3090,6015c-14-59-12-202,4-265
		c15-61,97-236,162-346l42-72l-46-6c-24-3-217-6-427-6h-383l10,42c12,55,89,155,236,306c112,115,404,393,409,389
		C3098,6055,3095,6037,3090,6015z M5825,5871c58-55,273-243,399-349l87-73l-3-67l-3-67l-395,3c-217,2-399,8-404,12
		c-8,8,33,83,106,193c22,32,53,90,70,130c28,65,31,82,31,175v104l31-6C5762,5922,5796,5899,5825,5871z M4593,5511c16-6,32-23,38-40
		c8-22,18-30,42-34c18-3,55-11,82-16c28-6,69-15,92-20c51-10,132,3,185,30l37,19l7-35c3-19,3-46,0-60l-6-25h-660
		c-619,0-659,1-664,18c-2,9-7,44-11,76c-6,51-5,58,9,53c9-4,53-14,97-23c91-18,251-16,271,4c7,7,25,12,40,12c22,0,33,8,46,31l17,31
		l175-5C4486,5525,4578,5517,4593,5511z"/>
</g>
</svg>
