<svg fill="#000000" xmlns="http://www.w3.org/2000/svg"  viewBox="0 0 50 50" width="50px" height="50px"><path d="M 41.046875 1.988281 C 40.679688 1.976563 40.335938 2.160156 40.148438 2.476563 L 38.332031 5.429688 L 30.660156 8.183594 C 30.195313 8.351563 29.921875 8.835938 30.019531 9.320313 L 32.828125 23.242188 C 29.578125 23.964844 26.914063 26.265625 25.703125 29.304688 C 25.617188 29.527344 25.609375 29.773438 25.6875 30 L 15.011719 30 C 15.007813 29.898438 14.988281 29.800781 14.953125 29.703125 L 11.046875 17 L 13.425781 17 C 14.296875 17 15 16.296875 15 15.425781 C 15 14.617188 14.382813 13.9375 13.578125 13.859375 L 7.097656 13.234375 C 5.980469 13.109375 5 13.984375 5 15.109375 C 5 16.15625 5.84375 17 6.890625 17 L 8.996094 17 C 8.996094 17.101563 9.015625 17.199219 9.046875 17.296875 L 12.953125 30 C 10.214844 30.027344 8 32.253906 8 35 C 8 37.371094 9.65625 39.347656 11.871094 39.859375 L 7.484375 46 L 5 46 C 4.640625 45.996094 4.304688 46.183594 4.121094 46.496094 C 3.941406 46.808594 3.941406 47.191406 4.121094 47.503906 C 4.304688 47.816406 4.640625 48.003906 5 48 L 7.976563 48 C 7.996094 48 8.019531 48 8.039063 48 L 11 48 C 11.359375 48.003906 11.695313 47.816406 11.878906 47.503906 C 12.058594 47.191406 12.058594 46.808594 11.878906 46.496094 C 11.695313 46.183594 11.359375 45.996094 11 46 L 9.945313 46 L 13.8125 40.582031 C 13.960938 40.382813 14.027344 40.136719 14.003906 39.890625 C 16.285156 39.613281 21.601563 38.644531 26.484375 37.707031 C 26.429688 37.96875 26.480469 38.242188 26.625 38.46875 C 28.410156 41.195313 31.5 43 35 43 C 36.328125 43 37.589844 42.734375 38.75 42.261719 L 41.863281 46 L 41 46 C 40.640625 45.996094 40.304688 46.183594 40.121094 46.496094 C 39.941406 46.808594 39.941406 47.191406 40.121094 47.503906 C 40.304688 47.816406 40.640625 48.003906 41 48 L 43.816406 48 C 43.949219 48.027344 44.082031 48.027344 44.214844 48 L 47 48 C 47.359375 48.003906 47.695313 47.816406 47.878906 47.503906 C 48.058594 47.191406 48.058594 46.808594 47.878906 46.496094 C 47.695313 46.183594 47.359375 45.996094 47 46 L 44.46875 46 L 40.558594 41.308594 C 43.234375 39.507813 45 36.457031 45 33 C 45 27.488281 40.511719 23 35 23 C 34.941406 23 34.878906 23.003906 34.820313 23.003906 L 32.152344 9.773438 L 39.339844 7.191406 C 39.550781 7.113281 39.734375 6.96875 39.851563 6.773438 L 41.851563 3.523438 C 42.042969 3.222656 42.058594 2.839844 41.890625 2.523438 C 41.726563 2.207031 41.402344 2 41.046875 1.988281 Z M 35 25 C 39.429688 25 43 28.570313 43 33 C 43 36.015625 41.34375 38.628906 38.890625 39.996094 C 38.648438 40.019531 38.425781 40.128906 38.261719 40.304688 C 37.265625 40.746094 36.164063 41 35 41 C 32.1875 41 29.726563 39.554688 28.296875 37.371094 C 28.296875 37.367188 28.292969 37.363281 28.289063 37.359375 C 31.671875 36.699219 34.601563 36.113281 35 36 C 36.59375 35.542969 38 34.65625 38 33 C 38 31.34375 36.65625 30 35 30 L 27.585938 30 C 28.769531 27.070313 31.632813 25 35 25 Z M 13 33 C 14.105469 33 15 33.894531 15 35 C 15 36.105469 14.105469 37 13 37 C 11.894531 37 11 36.105469 11 35 C 11 33.894531 11.894531 33 13 33 Z M 15.828125 34 L 20 34 C 20.550781 34 21 34.449219 21 35 C 21 35.550781 20.550781 36 20 36 L 15.828125 36 C 15.828125 36 16 35.476563 16 35 C 16 34.523438 15.828125 34 15.828125 34 Z"/></svg>