<svg fill="#000000" xmlns="http://www.w3.org/2000/svg"  viewBox="0 0 50 50" width="50px" height="50px"><path d="M 25 0 C 21.960938 0 19.5 2.460938 19.5 5.5 C 19.5 8.539063 21.960938 11 25 11 C 28.039063 11 30.5 8.539063 30.5 5.5 C 30.5 2.460938 28.039063 0 25 0 Z M 20.8125 13 C 19.210938 13 17.695313 14 17.09375 15.5 L 10.5625 30.40625 C 9.363281 33.007813 11.257813 36 14.15625 36 L 23.78125 36 L 19.28125 45.90625 C 18.382813 47.804688 19.769531 50 21.96875 50 C 23.070313 50 24.164063 49.3125 24.5625 48.3125 L 31.0625 34.3125 C 31.960938 32.3125 30.574219 30 28.375 30 L 21.46875 30 L 27.40625 17 L 42.90625 17 C 43.90625 17 44.800781 16.3125 45 15.3125 C 45.199219 14.113281 44.199219 13 43 13 Z"/></svg>