<svg fill="#000000" xmlns="http://www.w3.org/2000/svg"  viewBox="0 0 50 50" width="50px" height="50px"><path d="M 25 0 C 22.515625 0 20.5 2.015625 20.5 4.5 C 20.5 6.984375 22.515625 9 25 9 C 27.484375 9 29.5 6.984375 29.5 4.5 C 29.5 2.015625 27.484375 0 25 0 Z M 39.625 8.3125 C 38.972656 8.363281 38.394531 8.804688 38.09375 9.40625 L 37.78125 10 L 12.25 10 L 12 9.5 C 11.601563 8.699219 10.613281 8.199219 9.8125 8.5 C 8.925781 8.742188 8.425781 9.636719 8.53125 10.5 C 8.535156 10.539063 8.523438 10.585938 8.53125 10.625 C 8.5625 10.789063 8.609375 10.9375 8.6875 11.09375 L 9.125 12 L 12.6875 19.40625 C 12.988281 20.007813 13.710938 20.207031 14.3125 19.90625 L 20.09375 16.90625 L 20.09375 26 L 18.09375 37.09375 C 17.992188 37.695313 18.105469 38.1875 18.40625 38.6875 L 23.40625 47.6875 C 23.90625 48.488281 24.695313 49 25.59375 49 C 25.992188 49 26.414063 48.886719 26.8125 48.6875 C 28.011719 47.988281 28.414063 46.511719 27.8125 45.3125 L 27.03125 43.9375 L 23.09375 37 L 23.34375 36 L 25 29 L 27.6875 34.8125 L 25.5625 37.28125 L 28 41.59375 L 32.3125 37.3125 C 33.011719 36.613281 33.207031 35.710938 32.90625 34.8125 L 30 26 L 30 16.8125 L 35.8125 19.8125 C 36.414063 20.113281 37.105469 19.914063 37.40625 19.3125 L 41.40625 11 C 41.488281 10.835938 41.53125 10.671875 41.5625 10.5 C 41.566406 10.480469 41.558594 10.457031 41.5625 10.4375 C 41.683594 9.585938 41.210938 8.734375 40.3125 8.40625 C 40.085938 8.332031 39.84375 8.296875 39.625 8.3125 Z M 0 10 L 0 12 L 6.90625 12 C 6.59375 11.375 6.484375 10.683594 6.53125 10 Z M 43.5625 10 C 43.59375 10.644531 43.476563 11.300781 43.1875 11.875 L 43.125 12 L 50 12 L 50 10 Z M 13.25 12 L 18.3125 12 L 14.6875 14.8125 Z M 31.75 12 L 36.78125 12 L 35.40625 14.6875 Z"/></svg>