<svg fill="#000000" xmlns="http://www.w3.org/2000/svg"  viewBox="0 0 50 50" width="50px" height="50px"><path d="M 19.5 0 C 17.015625 0 15 2.015625 15 4.5 C 15 6.984375 17.015625 9 19.5 9 C 21.984375 9 24 6.984375 24 4.5 C 24 2.015625 21.984375 0 19.5 0 Z M 15 8.90625 C 14.699219 8.90625 14.289063 9 14.1875 9 L 6.6875 10.6875 C 6.085938 10.789063 5.605469 11.210938 5.40625 11.8125 L 2.625 18.21875 C 2.226563 19.117188 2.605469 20.171875 3.625 20.625 C 4.644531 21.078125 5.792969 20.324219 6.09375 19.625 L 8.40625 14.1875 L 11.6875 13.40625 L 9.09375 23.6875 C 8.492188 26.289063 9.992188 27.710938 11.09375 27.8125 L 18.5 29.09375 L 19.5 36.8125 C 19.699219 38.011719 20.613281 38.8125 21.8125 38.8125 L 22.09375 38.8125 C 23.394531 38.613281 24.195313 37.488281 24.09375 36.1875 L 22.8125 27 C 22.710938 26 21.90625 25.199219 20.90625 25 L 16.8125 24.1875 L 18.5 16.5 L 21 20.1875 C 21.300781 20.6875 21.894531 21.09375 22.59375 21.09375 C 22.792969 21.09375 22.988281 21.101563 23.1875 21 L 29.6875 18.84375 C 30.6875 18.34375 31.207031 17.34375 30.90625 16.34375 C 30.605469 15.34375 29.496094 14.855469 28.59375 15.15625 L 23.40625 16.90625 C 23.40625 16.90625 19.8125 11.585938 19.3125 10.6875 C 18.8125 9.789063 18.113281 9.605469 17.3125 9.40625 C 17.3125 9.40625 15.5 8.90625 15 8.90625 Z M 40 24 L 40 29 L 33 29 L 33 34 L 26 34 L 26 39 L 19 39 L 19 44 L 12 44 L 12 50 L 14 50 L 14 46 L 21 46 L 21 41 L 28 41 L 28 36 L 35 36 L 35 31 L 42 31 L 42 26 L 49 26 L 49 24 Z M 8.90625 28.9375 L 8 31.8125 L 1.96875 37.90625 C 1.070313 38.804688 1.070313 40.285156 1.96875 41.1875 C 2.46875 41.585938 2.960938 41.90625 3.5625 41.90625 C 4.164063 41.90625 4.757813 41.6875 5.15625 41.1875 L 11.59375 34.6875 C 11.894531 34.386719 12.085938 33.996094 12.1875 33.59375 L 13.0625 30.1875 L 10.8125 29.78125 C 10.132813 29.699219 9.488281 29.378906 8.90625 28.9375 Z"/></svg>