<?xml version="1.0"?><svg fill="#000000" xmlns="http://www.w3.org/2000/svg"  viewBox="0 0 50 50" width="50px" height="50px">    <path d="M 34.457031 2.9375 C 32.891717 2.9375 31.516613 3.7396338 30.710938 4.953125 C 29.4737 3.7340883 26.099006 1.2122857 21.960938 5.0292969 C 21.960938 5.0292969 24.931684 8.6335555 30.183594 6.1015625 C 30.051039 6.5257157 29.960938 6.9679185 29.960938 7.4355469 C 29.960938 9.9205469 31.973031 11.9375 34.457031 11.9375 C 36.946031 11.9375 38.960938 9.9205469 38.960938 7.4355469 C 38.960938 4.9525469 36.946031 2.9375 34.457031 2.9375 z M 19.960938 9.9375 A 2 2 0 0 0 18.876953 10.255859 L 18.847656 10.259766 L 11.917969 15.232422 A 2 2 0 0 0 10.960938 16.9375 A 2 2 0 0 0 12.960938 18.9375 A 2 2 0 0 0 14.248047 18.464844 L 14.248047 18.466797 L 20.242188 14.15625 L 24.652344 15.556641 L 19.71875 23.597656 L 19.71875 23.599609 A 4 4 0 0 0 18.960938 25.9375 A 4 4 0 0 0 21.191406 29.521484 L 28.714844 34.162109 L 27.013672 42.923828 A 2.5 2.5 0 0 0 27.009766 42.941406 L 27.009766 42.947266 A 2.5 2.5 0 0 0 26.960938 43.4375 A 2.5 2.5 0 0 0 29.460938 45.9375 A 2.5 2.5 0 0 0 31.916016 43.898438 L 31.917969 43.898438 L 33.943359 33.226562 L 33.9375 33.212891 A 2 2 0 0 0 33.960938 32.9375 A 2 2 0 0 0 33.306641 31.462891 L 33.300781 31.445312 L 27.898438 26.65625 L 32.568359 17.423828 L 32.566406 17.417969 A 3 3 0 0 0 32.960938 15.9375 A 3 3 0 0 0 31.154297 13.185547 L 31.152344 13.181641 L 28.644531 11.785156 L 20.480469 10.003906 L 20.470703 10.005859 A 2 2 0 0 0 19.960938 9.9375 z M 34.173828 18.681641 L 31.931641 23.109375 L 33.140625 25.775391 L 33.152344 25.783203 C 33.472344 26.463203 34.159937 26.9375 34.960938 26.9375 L 41.960938 26.9375 C 43.065937 26.9375 43.960938 26.0425 43.960938 24.9375 C 43.960938 23.8325 43.065937 22.9375 41.960938 22.9375 L 35.960938 22.9375 L 34.173828 18.681641 z M 17.478516 28.351562 L 15.201172 31.9375 L 7.4609375 31.9375 C 6.0799375 31.9375 4.9609375 33.0565 4.9609375 34.4375 C 4.9609375 35.8185 6.0799375 36.9375 7.4609375 36.9375 L 15.892578 36.9375 C 17.189578 36.9375 18.40625 36.308 19.15625 35.25 L 21.441406 32.025391 C 20.614406 31.514391 20.014813 31.146625 20.007812 31.140625 C 18.863813 30.492625 17.992516 29.506563 17.478516 28.351562 z"/></svg>