<?xml version="1.0" encoding="utf-8"?>
<!-- Generator: Adobe Illustrator 26.2.1, SVG Export Plug-In . SVG Version: 6.00 Build 0)  -->
<svg version="1.1" id="Calque_1" xmlns="http://www.w3.org/2000/svg" xmlns:xlink="http://www.w3.org/1999/xlink" x="0px" y="0px"
	 viewBox="0 0 50 50" style="enable-background:new 0 0 50 50;" xml:space="preserve">
<style type="text/css">
	.st0{fill:#BEF163;}
</style>
<path class="st0" d="M36.6,0c-3.2,0-5.5,1-7,2.5C28.1,4.1,27.5,6,27.2,8l-1.9,3.3c0,0,0,0,0,0c-0.5,0.8-0.2,1.9,0.7,2.4c0,0,0,0,0,0
	l1,0.5l0,1.7c0,1.1,0.4,2.2,1.1,2.9c0.7,0.8,1.8,1.2,3,1.1L31,20c0.3,0,0.5,0.1,0.7,0.3c-1.5,0.3-2.8,0.9-3.8,1.6
	c-3.2-1.6-6.5-0.6-8.4,1.6c-0.3-0.4-0.3-0.6-1-1.1c-2.3-1.8-4.6-1.6-6.2-0.7c-0.2,0.1-0.4,0.3-0.6,0.4c0.1-1.1,0.2-2.3,0-3.6
	c-0.4-2.2,0.1-3.9,0.2-4.5v0c0,0.1,0-0.1,0.1-0.2c0.1,0.5,0.3,1,0.8,1.3c0.3,0.2,0.5,0.3,0.9,0.4c0.2,0,0.4,0.1,0.7,0
	c0.3,0.1,0.5,0.1,0.8,0.1c0.2,0,0.5-0.1,0.8-0.2c0.3,0,0.6,0,0.8,0c0.2-0.1,0.3-0.3,0.5-0.4c0.1,0,0.2,0.1,0.2,0.1
	c0.3,0,0.6-0.2,0.7-0.3c0.3-0.3,0.5-0.6,0.6-0.8c0,0,0,0,0,0c0.4-1,0.1-2-0.2-3.1c-0.1-0.5-0.2-1-0.5-1.6c-0.3-0.6-0.7-1.2-1.5-1.7
	c-1.5-0.8-3.1-0.6-4.3-0.5c-1.8,0.2-3.4,1.1-4.9,3c0,0,0,0,0,0c-0.3,0.3-0.6,0.7-0.8,1.2C5.4,13,3.1,16.4,1.5,21.8
	c-0.6,2-0.5,4.1-0.2,5.7c0.1,0.8,0.3,1.6,0.5,2.2C1.8,30,1.9,30.3,2,30.5c0.1,0.2,0.2,0.4,0.5,0.7c0.5,0.4,0.9,0.4,1.4,0.6
	s0.9,0.3,1.2,0.6c0.7,0.5,1.5,1.8,3.6,3.5c3.1,2.6,6.8,2.3,9.4,1.4c1.2-0.4,2.2-1,2.9-1.5c0.3,3.3,1.5,5.1,2,6.5c0,0,0,0.1,0,0.1
	c0.4,0.7,0.7,1.3,1,1.9c0,0.1,0,0.1,0.1,0.2c0.7,1.4,1,2.5,0.9,4.4c0,0.6,0.4,1,0.9,1.1c0,0,0.1,0,0.1,0c0,0,0,0,0,0h22V22.4
	c0-0.4-0.2-0.8-0.6-0.9c-1.3-0.6-2.9-1.1-4.4-1.3l0-1.3c0,0,0,0,0,0c0-1.4,0.5-2.8,1.3-4c1-1.5,1.7-3.4,1.7-5.3
	c0-2.4-0.7-4.8-2.3-6.5C42.2,1.1,39.7,0,36.6,0z M36.6,2c2.7,0,4.5,0.9,5.7,2.2S44,7.4,44,9.4c0,1.6-0.5,3-1.3,4.2
	c-1,1.5-1.7,3.3-1.7,5.2l0,2.2c0,0.6,0.4,1,1,1c0,0,0,0,0,0c0.3,0,0.6,0,1,0.1c0,0.3-0.2,1.3-0.8,2.4c-0.7,1.3-2,2.5-4.6,2.5
	c-2.7,0-3.9-1.2-4.6-2.5c-0.6-1.1-0.8-2.1-0.8-2.4c0.3-0.1,0.7-0.1,1-0.1c0.6,0,1-0.4,1-1c0-1.6-1.4-3-3-3c0,0-0.1,0-0.1,0
	c-0.6,0.1-1-0.1-1.4-0.5C29.2,17.2,29,16.7,29,16c0,0,0,0,0,0l0-2.3c0-0.4-0.2-0.7-0.5-0.9l-1.3-0.7L29,8.9c0.1-0.1,0.1-0.2,0.1-0.4
	c0.2-1.8,0.8-3.5,1.9-4.6S33.8,2,36.6,2z M13.4,9c0.9,0,1.8,0,2.2,0.3c0.4,0.2,0.5,0.4,0.7,0.7c0.1,0.3,0.2,0.8,0.4,1.4
	c0.3,1,0.3,1.3,0.2,1.6c-0.3,0-0.5,0.2-0.7,0.4c-0.4-0.2-0.9-0.2-1.2,0.2c-0.3-0.2-0.7-0.2-1-0.1c0,0-0.1,0-0.1,0
	c-0.2-0.1-0.2-0.2,0-0.4c0.3-0.4,0.3-1.1-0.2-1.4c-0.3-0.2-0.6-0.3-0.9-0.1c0,0-0.2,0-0.6,0c-0.2,0-0.4,0-0.7,0
	c-0.3,0.1-0.7,0.2-0.9,0.6c0,0,0,0,0,0c-0.2,0.2-0.1,0.2-0.2,0.3c0,0.1-0.1,0.2-0.2,0.3c-0.1,0.2-0.2,0.3-0.3,0.6c0,0,0,0,0,0
	c-0.2,0.7-0.7,2.7-0.3,5.4c0.4,2.5-0.2,4.4-0.6,5.9C9,25.3,9.3,25.8,9.8,26c0.4,0.1,0.8,0,1.1-0.4c0.4-0.5,1.2-1.6,2.3-2.2
	c1.1-0.6,2.3-0.8,4.1,0.5c1,0.7,1.3,1.5,1.3,1.5c0.3,0.5,0.9,0.7,1.3,0.4c0.1-0.1,0.2-0.2,0.3-0.3c0,0,0.1-0.2,0.4-0.5c0,0,0,0,0,0
	c1.4-1.8,3.8-2.9,6.5-1.4c0.4,1.7,2.6,11.5-2,18.4c-0.1-0.2-0.2-0.3-0.3-0.5c-0.7-2-1.9-3.5-1.9-7.6c0,0,0,0,0,0c0,0,0,0,0-0.1
	c0,0,0,0,0,0c0,0,0,0,0,0c0,0,0,0,0,0c-0.1-0.5-0.5-0.9-1-0.9c-0.3,0-0.5,0.1-0.7,0.3c-0.2,0.2-1.7,1.4-3.8,2.1
	c-2.3,0.8-4.9,1.1-7.4-1c0,0,0,0,0,0c-1.9-1.6-2.5-2.7-3.7-3.6c-0.6-0.5-1.3-0.7-1.8-0.9c-0.5-0.2-0.8-0.3-0.8-0.3l0,0
	c-0.1-0.1-0.1-0.3-0.2-0.5c-0.2-0.5-0.3-1.1-0.4-1.8c-0.2-1.5-0.3-3.3,0.2-4.9v0c1.5-5.1,3.7-8.3,4.8-10C8.4,12,8.7,11.7,9,11.3l0,0
	c1.2-1.6,2.1-2.1,3.5-2.2c0,0,0,0,0,0C12.8,9.1,13.1,9,13.4,9z M16.2,13.5C16.2,13.5,16.2,13.5,16.2,13.5
	C16.2,13.5,16.2,13.6,16.2,13.5C16.2,13.6,16.2,13.5,16.2,13.5z M11,28c-0.6,0-1,0.4-1,1c0,0.2,0,0.3,0.1,0.5c0,0,0.4,0.7,1.1,1.3
	c0.8,0.6,2,1.2,3.8,1.2c1.7,0,3-0.6,3.8-1.2c0.8-0.6,1.1-1.3,1.1-1.3c0.2-0.5,0-1.1-0.4-1.3c-0.5-0.2-1.1,0-1.3,0.4
	c0,0-0.1,0.3-0.6,0.7S16.3,30,15,30c-1.3,0-2-0.4-2.5-0.8c-0.5-0.4-0.6-0.7-0.6-0.7C11.7,28.2,11.4,28,11,28z"/>
</svg>
