<?xml version="1.0" encoding="utf-8"?>
<!-- Generator: Adobe Illustrator 26.2.1, SVG Export Plug-In . SVG Version: 6.00 Build 0)  -->
<svg version="1.1" id="Calque_1" xmlns="http://www.w3.org/2000/svg" xmlns:xlink="http://www.w3.org/1999/xlink" x="0px" y="0px"
	 viewBox="0 0 50 50" style="enable-background:new 0 0 50 50;" xml:space="preserve">
<style type="text/css">
	.st0{fill:#BEF163;}
</style>
<path class="st0" d="M45,3.5c-2.8,0-5,2.2-5,5s2.2,5,5,5s5-2.2,5-5S47.8,3.5,45,3.5z M27.6,3.6c-0.2,0-0.3,0-0.5,0L16.8,4.7
	c-0.9,0.3-3.3,0.9-3,2.8c0.1,1,1.5,1.5,2.8,1.5c0.1,0,0.3,0,0.4,0l9.7-0.2l3.4,2.7l-7.8,5.4c-2.1,1.5-4,3.5-2.1,6.8l6.9,10
	c-2.5,0-9.1,0.1-10.6,0.3c-2.4,0.3-2.8,1.7-2.8,2.5c0,1.2,0.9,2.5,2.8,2.5h16.1c1.3,0,2.3-0.5,2.8-1.3c0.4-0.7,0.4-1.6-0.1-2.6
	c-0.7-1.3-5.8-9.1-7-10.9l10.3-6.5c1.5-1,1.9-2.5,1-4.1c-0.7-1.3-2.4-3.9-2.5-4c-0.1-0.1-0.2-0.4-7.9-5.5
	C28.7,3.7,28.2,3.6,27.6,3.6z M0.8,12C0.3,12.1,0,12.6,0,13.1c0,0.5,0.5,0.9,1,0.9h19c0.4,0.1,0.8-0.1,1-0.5c0.2-0.3,0.2-0.8,0-1.1
	c-0.2-0.3-0.6-0.5-1-0.5H1C0.9,12,0.9,12,0.8,12z M0.8,17C0.3,17.1,0,17.6,0,18.1c0,0.5,0.5,0.9,1,0.9h14c0.4,0.1,0.8-0.1,1-0.5
	c0.2-0.3,0.2-0.8,0-1.1c-0.2-0.3-0.6-0.5-1-0.5H1C0.9,17,0.9,17,0.8,17z M40.5,18.7c-0.3,0.2-0.5,0.5-0.8,0.7l-4.4,2.8l0.3,1.7
	c0,0,0,0.1,0,0.1c0.3,0.7,0.7,1.5,1.9,1.6c0.1,0,6.9-0.4,8.4-0.4c2.8-0.2,3.3-1.4,3.3-2.2c0-0.6-0.1-1.1-0.4-1.4
	c-0.5-0.5-1.2-0.6-2-0.6c-0.2,0-0.4,0-0.6,0l-5.6-0.3L40.5,18.7z M0.8,22C0.3,22.1,0,22.6,0,23.1c0,0.5,0.5,0.9,1,0.9h14
	c0.4,0.1,0.8-0.1,1-0.5c0.2-0.3,0.2-0.8,0-1.1c-0.2-0.3-0.6-0.5-1-0.5H1C0.9,22,0.9,22,0.8,22z M0.8,27C0.3,27.1,0,27.6,0,28.1
	c0,0.5,0.5,0.9,1,0.9h18c0.4,0.1,0.8-0.1,1-0.5c0.2-0.3,0.2-0.8,0-1.1c-0.2-0.3-0.6-0.5-1-0.5H1C0.9,27,0.9,27,0.8,27z M19.8,40.9
	c-1.5,1.6-3.2,3.3-3.9,4.2c-1.4,1.6-1.6,3.2-0.5,4.3c0.5,0.4,0.9,0.6,1.4,0.6c1.1,0,2.2-0.9,3.2-1.8c1.1-1,4.9-4.7,7.4-7.3H19.8z"/>
</svg>
